# xmcd
#
# Track frame offsets: 
#        150
#        18077
#        38617
#        63415
#        88545
#        106757
#        128290
#        148635
#        171077
#        188582
#        204662
#        225645
#
# Disc length: 3247 seconds
#
# Revision: 2
# Processed by: cddbd v1.5.1PL0 Copyright (c) Steve Scherf et al.
# Submitted via: ExactAudioCopy v0.95b2
#
DISCID=8b0cad0c
DTITLE=Cate Brothers - Radioland
DYEAR=1995
DGENRE=Blues
TTITLE0=There Goes The Neighborhood
TTITLE1=Radioland
TTITLE2=Am I Losing You
TTITLE3=Damn Guilty Blues
TTITLE4=Recovered Soul
TTITLE5=Please No More
TTITLE6=Solid Ground
TTITLE7=After This Time
TTITLE8=Sometimes It Jumps
TTITLE9=Strip Search (For Love)
TTITLE10=All I Gave
TTITLE11=Happy Ever After Love
EXTD=
EXTT0=
EXTT1=
EXTT2=
EXTT3=
EXTT4=
EXTT5=
EXTT6=
EXTT7=
EXTT8=
EXTT9=
EXTT10=
EXTT11=
PLAYORDER=
